HIERARCHY
ROOT RootJoint
{
    OFFSET   0.000000   0.000000   0.000000
    CHANNELS 6 Xposition Yposition Zposition Xrotation Yrotation Zrotation
    JOINT pelvis_lowerback
    {
        OFFSET   0.000000   0.093605   0.000000
        CHANNELS 3 Xrotation Yrotation Zrotation
        JOINT lowerback_torso
        {
            OFFSET   0.000000   0.100000   0.000000
            CHANNELS 3 Xrotation Yrotation Zrotation
            JOINT torso_head
            {
                OFFSET   0.000000   0.282350   0.000000
                CHANNELS 3 Xrotation Yrotation Zrotation
                End Site
                {
                    OFFSET   0.000000   0.192650   0.000000
                }
            }
            JOINT rTorso_Clavicle
            {
                OFFSET  -0.001000   0.157500   0.000000
                CHANNELS 3 Xrotation Yrotation Zrotation
                JOINT rShoulder
                {
                    OFFSET  -0.117647   0.000000   0.000000
                    CHANNELS 3 Xrotation Yrotation Zrotation
                    JOINT rElbow
                    {
                        OFFSET  -0.245000   0.000000   0.000000
                        CHANNELS 3 Xrotation Yrotation Zrotation
                        JOINT rWrist
                        {
                            OFFSET  -0.240000   0.000000   0.000000
                            CHANNELS 3 Xrotation Yrotation Zrotation
                            End Site
                            {
                                OFFSET  -0.116353  -0.002500   0.000000
                            }
                        }
                    }
                }
            }
            JOINT lTorso_Clavicle
            {
                OFFSET   0.001000   0.157500   0.000000
                CHANNELS 3 Xrotation Yrotation Zrotation
                JOINT lShoulder
                {
                    OFFSET   0.117647   0.000000   0.000000
                    CHANNELS 3 Xrotation Yrotation Zrotation
                    JOINT lElbow
                    {
                        OFFSET   0.245000   0.000000   0.000000
                        CHANNELS 3 Xrotation Yrotation Zrotation
                        JOINT lWrist
                        {
                            OFFSET   0.240000   0.000000   0.000000
                            CHANNELS 3 Xrotation Yrotation Zrotation
                            End Site
                            {
                                OFFSET   0.116353  -0.002500   0.000000
                            }
                        }
                    }
                }
            }
        }
    }
    JOINT rHip
    {
        OFFSET  -0.100000  -0.051395   0.000000
        CHANNELS 3 Xrotation Yrotation Zrotation
        JOINT rKnee
        {
            OFFSET   0.000000  -0.410000   0.000000
            CHANNELS 3 Xrotation Yrotation Zrotation
            JOINT rAnkle
            {
                OFFSET   0.000000  -0.390000   0.000000
                CHANNELS 3 Xrotation Yrotation Zrotation
                JOINT rToeJoint
                {
                    OFFSET   0.000000  -0.050000   0.130000
                    CHANNELS 3 Xrotation Yrotation Zrotation
                    End Site
                    {
                        OFFSET  -0.010000   0.002000   0.060000
                    }
                }
            }
        }
    }
    JOINT lHip
    {
        OFFSET   0.100000  -0.051395   0.000000
        CHANNELS 3 Xrotation Yrotation Zrotation
        JOINT lKnee
        {
            OFFSET   0.000000  -0.410000   0.000000
            CHANNELS 3 Xrotation Yrotation Zrotation
            JOINT lAnkle
            {
                OFFSET   0.000000  -0.390000   0.000000
                CHANNELS 3 Xrotation Yrotation Zrotation
                JOINT lToeJoint
                {
                    OFFSET   0.000000  -0.050000   0.130000
                    CHANNELS 3 Xrotation Yrotation Zrotation
                    End Site
                    {
                        OFFSET   0.010000   0.002000   0.060000
                    }
                }
            }
        }
    }
}
MOTION
Frames: 14
Frame Time:   0.008333
 -1.744071   0.906108   5.145955 -53.611022  77.195051  51.418590   9.935108  -3.731215  -1.041405   0.610863  -2.660016  -0.289084   1.393737   2.322535  -0.820972   3.630198 -13.614657   3.873341   1.605466 -13.407009  46.867864   0.019745  52.294246  -0.017025  -0.121260   2.865171 -19.446025  -1.819874   4.232533  -3.256107 -23.255433   9.187408 -43.944481   0.000868 -71.592225  -0.000815  -4.411359  -3.256045  28.776982  -6.505091  -0.683499  -2.915886  24.879026   0.013992  -0.015527  -2.908499  -7.353067   4.594612   0.100159  -0.004055   0.001896   9.667092  -6.634001   3.708225  24.976179  -0.004908   0.009626 -15.359930  -3.852192   0.961417 -13.681866  -0.000348  -0.006867
 -1.739890   0.903800   5.150118 -54.654349  77.197478  52.318896  10.035141  -3.785087  -1.037401   0.646311  -2.706795  -0.297773   1.403822   2.354772  -0.838803   3.690170 -13.757999   4.115357   1.251917 -13.883458  46.586291   0.023534  51.276448  -0.022422  -0.183005   2.874607 -19.403339  -1.797590   4.383883  -3.469563 -23.291215   9.282486 -43.867121  -0.001685 -71.955465  -0.003730  -4.403585  -3.288297  28.634584  -5.839401  -1.089364  -2.504293  24.542497   0.012337  -0.012215  -4.061185  -7.508804   4.192619  -1.504412  -0.002258   0.003534   9.009261  -6.550718   4.002793  27.327939  -0.005306   0.015583 -15.908504  -3.820864   0.621931 -14.872604  -0.001437  -0.009618
 -1.735791   0.901224   5.154367 -55.439670  77.088434  52.894157  10.169343  -3.784260  -1.022276   0.734402  -2.710936  -0.275305   1.435235   2.386609  -0.844594   3.731275 -13.885947   4.346685   0.899711 -14.330740  46.300204   0.025866  50.312294  -0.025805  -0.271199   2.810204 -19.458400  -1.772995   4.552819  -3.680317 -23.324916   9.389129 -43.782629  -0.003475 -72.291560  -0.005726  -4.387039  -3.342072  28.566337  -5.114073  -1.405585  -2.042651  24.296736   0.010632  -0.009551  -5.199793  -7.517261   3.868181  -3.425225  -0.000152   0.003774   8.358255  -6.466776   4.356490  29.813689  -0.006436   0.018889 -16.419242  -3.767171   0.311616 -16.080354  -0.001964  -0.011078
 -1.732025   0.899275   5.158548 -55.964655  76.916005  53.051776  10.350246  -3.750090  -0.901149   0.846482  -2.680970  -0.207547   1.470242   2.416967  -0.845159   3.752374 -13.981535   4.603213   0.554000 -14.736218  46.033598   0.026353  49.403201  -0.027316  -0.369961   2.706758 -19.524100  -1.731867   4.721922  -3.943684 -23.336476   9.509441 -43.722077  -0.003987 -72.592586  -0.006481  -4.381832  -3.372390  28.534414  -4.441310  -1.658285  -1.423677  24.241308   0.008677  -0.007577  -6.763279  -7.456699   3.400549  -2.832609  -0.000036   0.003026   7.763871  -6.410635   4.865078  32.206518  -0.008221   0.019212 -16.826484  -3.692765   0.047493 -16.469838  -0.001662  -0.009617
 -1.728441   0.897624   5.162600 -56.322022  76.727546  53.052527  10.519809  -3.715411  -0.821832   0.966993  -2.644851  -0.145283   1.508041   2.444891  -0.841748   3.775385 -14.071178   4.857661   0.237318 -15.111471  45.803046   0.026077  48.557457  -0.027781  -0.464292   2.609312 -19.553314  -1.680308   4.891519  -4.191664 -23.335281   9.630785 -43.668400  -0.003946 -72.868715  -0.006625  -4.395375  -3.367040  28.501771  -3.796687  -1.873060  -0.821186  24.149301   0.007209  -0.005953  -8.069543  -7.355085   2.975885  -2.303727   0.000033   0.002424   7.204778  -6.376200   5.356943  34.460751  -0.009687   0.018463 -17.147669  -3.617134  -0.181967 -16.182646  -0.001278  -0.007263
 -1.724997   0.896128   5.166496 -56.530417  76.531220  52.928689  10.674399  -3.680680  -0.777053   1.083524  -2.607632  -0.103011   1.544846   2.470752  -0.840364   3.801196 -14.159285   5.097773  -0.054527 -15.462596  45.592672   0.025521  47.769282  -0.027646  -0.553396   2.520293 -19.564457  -1.625704   5.058623  -4.420627 -23.329315   9.749489 -43.616229  -0.003636 -73.124211  -0.006444  -4.418420  -3.342761  28.472072  -3.186621  -2.069201  -0.249975  24.045013   0.006063  -0.004620  -9.230121  -7.249321   2.579227  -1.816772   0.000075   0.001774   6.683432  -6.352781   5.818406  36.569916  -0.010759   0.017183 -17.405203  -3.545039  -0.385025 -15.446482  -0.000994  -0.004928
 -1.721541   0.895448   5.170323 -57.257979  76.311457  53.195768  10.886337  -3.678745  -0.653110   1.237034  -2.594533  -0.030396   1.586066   2.493684  -0.836564   3.826099 -14.242019   5.353868  -0.326615 -15.792952  45.398940   0.024420  47.023924  -0.026935  -0.650237   2.401689 -19.574488  -1.566582   5.202569  -4.683929 -23.311652   9.864365 -43.588985  -0.003085 -73.354746  -0.006077  -4.450162  -3.299262  28.425166  -2.745497  -2.265615   0.412071  24.357231   0.004100  -0.003903  -9.622576  -7.134642   2.415026  -1.390817  -0.000222   0.001410   6.313680  -6.362793   6.376486  38.539879  -0.010510   0.016378 -17.575653  -3.500120  -0.563999 -13.980913  -0.000462  -0.001973
 -1.718397   0.894592   5.173922 -57.911417  76.089380  53.402891  11.208503  -3.646976  -0.570319   1.306769  -2.628264   0.102516   1.666036   2.529236  -0.789745   3.771403 -14.313072   5.658485  -0.896857 -16.309557  44.883591   0.026824  46.276720  -0.029646  -0.730963   2.283100 -19.513369  -1.565652   5.416245  -4.990664 -23.391457  10.091092 -43.492427  -0.002762 -73.396214  -0.005284  -4.403912  -3.401927  28.289638  -2.394956  -2.485880   1.054843  24.839173   0.002072  -0.003582 -10.378856  -7.103493   1.984071  -1.057778   0.000267   0.000810   5.560415  -6.200310   6.914151  41.363718  -0.008263   0.021584 -17.197728  -3.370196  -0.858644 -12.908510   0.001316   0.003259
 -1.715161   0.893664   5.177382 -58.398612  75.805093  53.474269  11.529247  -3.581901  -0.513062   1.402045  -2.630442   0.211774   1.750621   2.561866  -0.736083   3.711323 -14.391590   5.893152  -1.460277 -16.798505  44.338078   0.028716  45.575475  -0.031177  -0.821529   2.149819 -19.610858  -1.551379   5.659035  -5.278865 -23.461352  10.335196 -43.378414  -0.002362 -73.414872  -0.004429  -4.394809  -3.434130  28.252957  -2.016660  -2.677073   1.649062  25.321500   0.000468  -0.003506 -11.091491  -7.065815   1.572035  -0.782412   0.000581   0.000276   4.846870  -6.032801   7.423420  44.181359  -0.006568   0.024798 -16.806640  -3.238604  -1.125000 -11.619765   0.002990   0.008019
 -1.711851   0.892699   5.180728 -58.750640  75.500096  53.441753  11.827137  -3.500530  -0.480023   1.503034  -2.610280   0.292560   1.832381   2.592217  -0.683550   3.657258 -14.474408   6.078940  -1.998792 -17.256806  43.793919   0.029823  44.920836  -0.031639  -0.909660   2.021059 -19.780366  -1.524212   5.915534  -5.547528 -23.519152  10.582119 -43.259318  -0.001978 -73.425009  -0.003656  -4.405342  -3.427348  28.270144  -1.633382  -2.852672   2.196410  25.791898  -0.000760  -0.003539 -11.756436  -7.025125   1.185710  -0.530300   0.000783  -0.000187   4.180073  -5.882118   7.910991  46.847084  -0.005479   0.026188 -16.439077  -3.116916  -1.374221 -10.432938   0.004086   0.010902
 -1.708494   0.891710   5.183966 -59.011011  75.192170  53.345459  12.102116  -3.411237  -0.468749   1.601234  -2.577043   0.348329   1.908984   2.620588  -0.634269   3.608739 -14.557997   6.230936  -2.510412 -17.684322  43.262809   0.030183  44.310096  -0.031286  -0.993872   1.900438 -19.985186  -1.489355   6.173968  -5.798740 -23.568179  10.824749 -43.140546  -0.001629 -73.430214  -0.002984  -4.426531  -3.399276  28.318295  -1.252317  -3.015634   2.702944  26.246621  -0.001671  -0.003590 -12.377179  -6.982662   0.824168  -0.298598   0.000902  -0.000555   3.550938  -5.750372   8.381100  49.341459  -0.004784   0.026449 -16.095689  -3.004288  -1.607309  -9.347288   0.004686   0.012502
 -1.705103   0.890704   5.187096 -59.205280  74.888207  53.207674  12.356136  -3.318293  -0.476233   1.694082  -2.536068   0.382993   1.980255   2.647163  -0.588861   3.564253 -14.639474   6.358382  -2.995559 -18.081399  42.750696   0.029906  43.740687  -0.030342  -1.073756   1.789254 -20.207467  -1.450313   6.427141  -6.034459 -23.610725  11.059061 -43.025235  -0.001323 -73.432290  -0.002412  -4.453987  -3.358756  28.384396  -0.875897  -3.166721   3.173250  26.684948  -0.002326  -0.003622 -12.956795  -6.939014   0.485831  -0.085760   0.000961  -0.000829   2.954140  -5.636546   8.834434  51.668319  -0.004321   0.025992 -15.775235  -2.899873  -1.825230  -8.354396   0.004923   0.013232
 -1.701683   0.889685   5.190114 -59.346781  74.591066  53.038733  12.590784  -3.224168  -0.499254   1.780684  -2.490464   0.400186   2.046504   2.672076  -0.547375   3.522586 -14.717005   6.467171  -3.455157 -18.449002  42.260627   0.029126  43.210134  -0.028991  -1.149014   1.688360 -20.437073  -1.409180   6.671066  -6.256297 -23.648145  11.282974 -42.915172  -0.001062 -73.432301  -0.001933  -4.485280  -3.310693  28.460246  -0.505343  -3.306555   3.610881  27.107205  -0.002777  -0.003626 -13.497995  -6.894658   0.169172   0.109686   0.000976  -0.001021   2.386836  -5.538977   9.270402  53.836543  -0.003995   0.025046 -15.476298  -2.802977  -2.028938  -7.446365   0.004914   0.013357
 -1.698503   0.888640   5.192787 -59.144291  74.288611  52.619540  12.889604  -3.144151  -0.580561   1.761488  -2.466406   0.421065   2.141685   2.648631  -0.450860   3.433195 -14.796647   6.631581  -4.173833 -18.789537  41.576834   0.027968  42.808232  -0.027832  -1.202026   1.513656 -20.691361  -1.360876   6.936061  -6.439058 -23.571190  11.546112 -42.738430   0.001136 -72.947879   0.000986  -4.329801  -3.554851  28.541959  -0.250362  -3.431203   3.923006  27.571402  -0.003203  -0.003986 -13.874844  -6.850030  -0.172927   0.417399   0.001286  -0.001566   1.665297  -5.394803   9.618895  56.055103  -0.003690   0.024435 -14.729165  -2.469942  -2.094117  -6.702054   0.003762   0.014528
